<svg width="800" height="600" xmlns="http://www.w3.org/2000/svg" viewBox="0 0 800 600">
  <!-- Background -->
  <rect width="800" height="600" fill="#f5f5f5" />
  
  <!-- Header -->
  <rect width="800" height="60" fill="#3f51b5" />
  <text x="400" y="35" font-family="'Roboto', sans-serif" font-size="24" fill="white" text-anchor="middle">Echo App</text>
  
  <!-- Main Content Area -->
  <g transform="translate(50, 100)">
    <!-- Material Card for Input Section -->
    <rect width="300" height="250" fill="white" rx="4" filter="drop-shadow(0 2px 3px rgba(0,0,0,0.2))" />
    <rect width="300" height="50" fill="#3f51b5" rx="4 4 0 0" />
    <text x="20" y="30" font-family="'Roboto', sans-serif" font-size="16" fill="white">New Echo</text>
    
    <!-- Material Input Field -->
    <rect x="20" y="70" width="260" height="100" fill="#f9f9f9" rx="4" />
    <text x="30" y="95" font-family="'Roboto', sans-serif" font-size="14" fill="#777">Type something here...</text>
    <line x1="20" y1="178" x2="280" y2="178" stroke="#3f51b5" stroke-width="2" />
    
    <!-- Material Button -->
    <rect x="200" y="200" width="80" height="36" fill="#3f51b5" rx="4" />
    <text x="240" y="223" font-family="'Roboto', sans-serif" font-size="14" fill="white" text-anchor="middle">SUBMIT</text>
    
    <!-- Results Section - Material Card -->
    <g transform="translate(350, 0)">
      <rect width="300" height="350" fill="white" rx="4" filter="drop-shadow(0 2px 3px rgba(0,0,0,0.2))" />
      <rect width="300" height="50" fill="#3f51b5" rx="4 4 0 0" />
      <text x="20" y="30" font-family="'Roboto', sans-serif" font-size="16" fill="white">Results</text>
      
      <!-- Material List Items -->
      <rect x="10" y="60" width="280" height="80" fill="#f9f9f9" rx="4" filter="drop-shadow(0 1px 2px rgba(0,0,0,0.1))" />
      <text x="20" y="85" font-family="'Roboto', sans-serif" font-size="14" fill="#333">Sample echoed text</text>
      <text x="20" y="110" font-family="'Roboto', sans-serif" font-size="12" fill="#888">Processing time: 42ms</text>
      
      <rect x="10" y="150" width="280" height="80" fill="#f9f9f9" rx="4" filter="drop-shadow(0 1px 2px rgba(0,0,0,0.1))" />
      <text x="20" y="175" font-family="'Roboto', sans-serif" font-size="14" fill="#333">Another example</text>
      <text x="20" y="200" font-family="'Roboto', sans-serif" font-size="12" fill="#888">Processing time: 37ms</text>
      
      <rect x="10" y="240" width="280" height="80" fill="#f9f9f9" rx="4" filter="drop-shadow(0 1px 2px rgba(0,0,0,0.1))" />
      <text x="20" y="265" font-family="'Roboto', sans-serif" font-size="14" fill="#333">Angular + Express example</text>
      <text x="20" y="290" font-family="'Roboto', sans-serif" font-size="12" fill="#888">Processing time: 55ms</text>
    </g>
  </g>
  
  <!-- Footer -->
  <rect y="550" width="800" height="50" fill="#3f51b5" />
  <text x="400" y="575" font-family="'Roboto', sans-serif" font-size="14" fill="white" text-anchor="middle">© 2025 Echo App - Built with Angular and Express</text>
</svg>