<svg width="800" height="600" xmlns="http://www.w3.org/2000/svg" viewBox="0 0 800 600">
  <!-- Background -->
  <rect width="800" height="600" fill="#f0f2f5" />
  
  <!-- Header -->
  <rect width="800" height="64" fill="#001529" />
  <text x="50" y="40" font-family="'Inter', sans-serif" font-size="22" fill="white">Echo App</text>
  
  <!-- Ant Design Menu -->
  <rect x="650" y="22" width="30" height="20" fill="none" stroke="white" stroke-width="2" rx="2" />
  <line x1="656" y1="28" x2="674" y2="28" stroke="white" stroke-width="2" />
  <line x1="656" y1="34" x2="674" y2="34" stroke="white" stroke-width="2" />
  
  <!-- Main Content Area -->
  <g transform="translate(50, 100)">
    <!-- Input Section - Ant Design Card -->
    <rect width="300" height="250" fill="white" rx="2" filter="drop-shadow(0 1px 2px rgba(0,0,0,0.1))" />
    <line x1="0" y1="46" x2="300" y2="46" stroke="#f0f0f0" stroke-width="1" />
    <text x="20" y="30" font-family="'Inter', sans-serif" font-size="16" fill="#000000" font-weight="500">New Echo</text>
    
    <!-- Ant Design Input -->
    <rect x="20" y="70" width="260" height="100" fill="white" rx="2" stroke="#d9d9d9" stroke-width="1" />
    <text x="30" y="95" font-family="'Inter', sans-serif" font-size="14" fill="#bfbfbf">Type something here...</text>
    
    <!-- Ant Design Button -->
    <rect x="180" y="190" width="100" height="32" fill="#1890ff" rx="2" />
    <text x="230" y="210" font-family="'Inter', sans-serif" font-size="14" fill="white" text-anchor="middle">Submit</text>
    
    <!-- Results Section - Ant Design Card -->
    <g transform="translate(350, 0)">
      <rect width="300" height="350" fill="white" rx="2" filter="drop-shadow(0 1px 2px rgba(0,0,0,0.1))" />
      <line x1="0" y1="46" x2="300" y2="46" stroke="#f0f0f0" stroke-width="1" />
      <text x="20" y="30" font-family="'Inter', sans-serif" font-size="16" fill="#000000" font-weight="500">Results</text>
      
      <!-- Ant Design List Items -->
      <rect x="10" y="60" width="280" height="80" fill="white" rx="2" />
      <line x1="10" y1="140" x2="290" y2="140" stroke="#f0f0f0" stroke-width="1" />
      <text x="20" y="85" font-family="'Inter', sans-serif" font-size="14" fill="#000000">Sample echoed text</text>
      <text x="20" y="110" font-family="'Inter', sans-serif" font-size="12" fill="#8c8c8c">Processing time: 42ms</text>
      
      <rect x="10" y="141" width="280" height="80" fill="white" rx="0" />
      <line x1="10" y1="221" x2="290" y2="221" stroke="#f0f0f0" stroke-width="1" />
      <text x="20" y="165" font-family="'Inter', sans-serif" font-size="14" fill="#000000">Another example</text>
      <text x="20" y="190" font-family="'Inter', sans-serif" font-size="12" fill="#8c8c8c">Processing time: 37ms</text>
      
      <rect x="10" y="222" width="280" height="80" fill="white" rx="0" />
      <line x1="10" y1="302" x2="290" y2="302" stroke="#f0f0f0" stroke-width="1" />
      <text x="20" y="245" font-family="'Inter', sans-serif" font-size="14" fill="#000000">Ant Design example</text>
      <text x="20" y="270" font-family="'Inter', sans-serif" font-size="12" fill="#8c8c8c">Processing time: 55ms</text>
    </g>
  </g>
  
  <!-- Footer -->
  <rect y="550" width="800" height="50" fill="#f0f2f5" />
  <text x="400" y="575" font-family="'Inter', sans-serif" font-size="14" fill="#8c8c8c" text-anchor="middle">© 2025 Echo App - Built with Ant Design and Express</text>
</svg>